<?xml version="1.0" encoding="UTF-8"?>
<svg id="Layer_1" xmlns="http://www.w3.org/2000/svg" version="1.1" viewBox="0 0 90 90">
  <!-- Generator: Adobe Illustrator 29.0.0, SVG Export Plug-In . SVG Version: 2.1.0 Build 186)  -->
  <defs>
    <style>
      .st0 {
        fill: #231f20;
      }

      .st1 {
        fill: #ededed;
      }
    </style>
  </defs>
  <circle class="st1" cx="45" cy="45" r="45"/>
  <path d="M32.6,43.6c.2,0,.4,0,.6,0,.2,0,.3,0,.5.2l.4-1c-.5-.2-.9-.3-1.4-.3s-.9,0-1.2.3c-.3.2-.6.5-.8.8s-.3.8-.3,1.3c0,.8.2,1.4.6,1.8.4.4.9.6,1.6.6s.9,0,1.3-.3v-1.1c-.2,0-.4.2-.6.2-.2,0-.4,0-.6,0-.7,0-1-.4-1-1.3s.1-.8.3-1c0-.3.3-.4.6-.4Z"/>
  <path d="M38.2,46.3c-.2,0-.5,0-.7,0-.3,0-.5-.2-.8-.3v1.1c.2,0,.4.2.7.2s.5,0,.8,0,.7,0,1-.2c.3,0,.5-.3.6-.5s.2-.5.2-.8,0-.6-.2-.8c-.2-.2-.4-.4-.8-.6-.4-.2-.7-.3-.8-.4-.2,0-.2,0-.2-.2s0-.2,0-.2c0,0,.2,0,.4,0,.3,0,.7,0,1.1.3l.4-1c-.5-.2-1-.3-1.5-.3s-1,0-1.3.4c-.3.2-.5.6-.5,1s0,.4,0,.6c0,.2.2.3.3.4.2,0,.4.3.7.4.3.2.5.3.6.3s0,0,.2,0c0,0,0,0,0,.2s0,.2,0,.3-.2,0-.4,0Z"/>
  <path d="M44.1,46.3c-.2,0-.5,0-.7,0-.3,0-.5-.2-.8-.3v1.1c.2,0,.4.2.7.2s.5,0,.8,0,.7,0,1-.2c.3,0,.5-.3.6-.5s.2-.5.2-.8,0-.6-.2-.8c-.2-.2-.4-.4-.8-.6-.4-.2-.7-.3-.8-.4,0,0,0-.2,0-.2,0,0,0-.2,0-.2,0,0,.2,0,.4,0,.3,0,.7,0,1.1.3l.4-1c-.5-.2-1-.3-1.5-.3s-1,0-1.3.4c-.3.2-.5.6-.5,1s0,.4,0,.6c0,.2.2.3.3.4.2,0,.4.3.7.4.3.2.5.3.6.3s0,0,.2,0c0,0,0,0,0,.2s0,.2,0,.3-.3,0-.5,0Z"/>
  <path d="M52.8,44.8c0-.7-.2-1.3-.6-1.7-.4-.4-1-.6-1.7-.6h-1.6v4.7h1.5c.8,0,1.4-.2,1.8-.6.4-.4.6-1,.6-1.8ZM51.2,45.9c-.2.2-.5.3-.8.3h-.3v-2.6h.4c.3,0,.6,0,.8.3s.3.5.3,1c-.1.4-.2.8-.4,1Z"/>
  <path d="M58.5,46.4l.2.9h1.4l-1.5-4.7h-1.7l-1.5,4.7h1.4l.2-.9h1.5ZM57.6,43.9c0-.2,0-.4,0-.5,0,0,0,.3,0,.6,0,.3,0,.5.2.7l.2.8h-1c.2-.9.3-1.4.4-1.6Z"/>
  <polygon points="51.2 39.2 46.4 34.4 41.7 39.2 39 39.2 49 29.2 38.5 29.2 28.4 39.2 24.6 39.2 24.6 39.9 65.8 39.9 65.8 39.2 51.2 39.2"/>
  <polygon points="24.6 50.6 39.1 50.6 43.8 55.3 48.6 50.6 51.2 50.6 41.2 60.6 51.7 60.6 57 55.4 61.7 50.6 65.8 50.6 65.8 49.9 24.6 49.9 24.6 50.6"/>
  <g>
    <path class="st0" d="M24.8,73.2l.4-1-1.8-1.5-.9.5-1-.9,5.3-2.9,1.1,1-2.1,5.7-1-.9ZM26.6,68.8l-2.2,1.3,1.3,1.1.9-2.4Z"/>
    <path class="st0" d="M31.5,77.2l.8-3.9-2.6,3.1-1.1-.6,1.1-5.8,1.2.6-.9,4.1,2.8-3.2.8.4-.9,4.1,2.7-3.3,1.2.6-3.9,4.4-1.1-.6Z"/>
    <path class="st0" d="M39.9,79.7v-1c-.1,0-2.5-.5-2.5-.5l-.5.9-1.3-.3,3.2-5.1,1.4.3,1,6-1.3-.3ZM39.3,75l-1.3,2.2,1.7.3-.4-2.6Z"/>
    <path class="st0" d="M46.8,80l-1.1-2h-.9s0,2,0,2h-1.2s-.1-5.6-.1-5.6h2.6c1.2,0,1.9.7,1.9,1.7,0,1-.6,1.6-1.2,1.7l1.3,2.1h-1.4ZM46.9,76.2c0-.5-.4-.8-.8-.7h-1.2s0,1.6,0,1.6h1.2c.5,0,.8-.3.8-.8Z"/>
    <path class="st0" d="M51,79.6l-1.4-5.5,2.1-.6c1.7-.4,3.1.3,3.6,2s-.4,3-2.1,3.5l-2.1.6ZM54.1,75.9c-.3-1-1-1.6-2.1-1.3l-1,.3.9,3.4,1-.3c1.1-.3,1.5-1.2,1.2-2.2Z"/>
    <path class="st0" d="M58.5,77.2l-2.6-5,3.5-1.8.5.9-2.4,1.3.6,1.1,2.4-1.2.5.9-2.4,1.2.6,1.1,2.4-1.3.5.9-3.5,1.8Z"/>
    <path class="st0" d="M64.3,73.8l-3.7-4.3,1.7-1.4c1.3-1.1,3-1,4.1.3,1.1,1.3.9,2.9-.4,4.1l-1.7,1.4ZM65.5,69.2c-.6-.8-1.6-1-2.5-.2l-.8.6,2.3,2.7.8-.6c.8-.7.8-1.7.2-2.5Z"/>
  </g>
  <g>
    <path class="st0" d="M17.9,35.2l-5.2-2.2,1.1-2.6c.4-1,1.2-1.2,1.9-.9.7.3.9.8.8,1.4.3-.5,1-.7,1.7-.4.8.3,1.2,1.1.8,2.1l-1.1,2.7ZM15.5,30.6c-.3-.1-.7,0-.8.3l-.6,1.3,1.1.5.6-1.3c.2-.4,0-.7-.3-.8ZM17.6,31.4c-.3-.1-.7,0-.9.4l-.6,1.4,1.2.5.6-1.4c.2-.4,0-.7-.3-.9Z"/>
    <path class="st0" d="M20.5,29.5l-4.7-3.2,2.2-3.2.9.6-1.5,2.2,1,.7,1.5-2.2.9.6-1.5,2.2,1.1.7,1.5-2.2.9.6-2.2,3.2Z"/>
    <path class="st0" d="M23,24.6l-.2-1.1c.6,0,1.2-.2,1.8-.7.5-.5.5-.9.2-1.1-.7-.7-2.4,2-4,.5-.7-.7-.7-1.8.2-2.7.6-.6,1.3-.9,2.1-.9l.2,1.1c-.6,0-1.2.3-1.6.7-.4.4-.4.7-.1,1,.6.6,2.4-2,3.9-.5.7.7.8,1.8-.3,2.8-.7.7-1.5,1-2.3,1Z"/>
    <path class="st0" d="M28.9,20.4l-2.6-3.8-1.3.9-.6-.9,3.6-2.4.6.9-1.3.9,2.6,3.8-1,.7Z"/>
    <path class="st0" d="M34.8,14.7l-.9-3.3,1.1-.3.9,3.2c.2.8.8,1.2,1.6.9s1.1-.9.9-1.6l-.9-3.2,1.1-.3.9,3.3c.4,1.4-.1,2.5-1.7,2.9-1.6.4-2.6-.3-3-1.6Z"/>
    <path class="st0" d="M42,15.4l-.5-5.6h1.2c0,0,.5,5.5.5,5.5h-1.2Z"/>
    <path class="st0" d="M48.2,15.3l1.1-5.6,2.1.4c1.7.3,2.6,1.7,2.3,3.4-.3,1.7-1.7,2.5-3.4,2.2l-2.1-.4ZM52.5,13.3c.2-1-.2-1.9-1.3-2.1l-1-.2-.7,3.5,1,.2c1.1.2,1.8-.5,2-1.4Z"/>
    <path class="st0" d="M54.7,16.9l2.3-5.2,3.5,1.6-.4,1-2.5-1.1-.5,1.1,2.4,1.1-.4,1-2.4-1.1-.5,1.2,2.5,1.1-.4,1-3.5-1.6Z"/>
    <path class="st0" d="M59.8,18.5l1-.4c0,.6.3,1.2,1,1.6.5.4.9.3,1.1,0,.6-.8-2.4-2.1-1.1-3.8.5-.8,1.6-.9,2.7-.2.7.5,1.1,1.1,1.3,1.9l-1,.3c-.1-.6-.5-1.1-.9-1.4-.4-.3-.8-.3-1,0-.5.7,2.4,2.1,1.1,3.8-.6.8-1.6,1.1-2.8.2-.8-.6-1.2-1.3-1.3-2.1Z"/>
    <path class="st0" d="M64.2,23l4-4,.8.8-4,4-.8-.8Z"/>
    <path class="st0" d="M68.6,23.3c1.5-1.1,3.1-.7,4.1.6.7.9.6,1.8.3,2.6l-1-.5c.2-.4.2-1-.2-1.5-.6-.8-1.6-.9-2.5-.3-.9.6-1.1,1.7-.5,2.5.3.4.7.6,1,.7l.6-.4-.8-1.2.9-.6,1.5,2.1-1.8,1.3c-.9,0-1.7-.4-2.2-1.2-.9-1.3-.8-3,.7-4.1Z"/>
    <path class="st0" d="M71.7,34.1l2.4-3.8-3.4,1.5-.5-1.1,5.2-2.2.5,1.1-2.3,3.7,3.3-1.4.5,1.1-5.2,2.2-.4-1Z"/>
  </g>
</svg>